<svg width="593" height="412" viewBox="0 0 593 412" fill="none" xmlns="http://www.w3.org/2000/svg">
<path d="M331.499 -327.167L329.854 -331.135L329.853 -331.135L331.499 -327.167ZM362.833 -314.188L366.802 -315.831L366.802 -315.831L362.833 -314.188ZM411.561 -196.434L407.592 -194.791L411.561 -185.2L415.531 -194.791L411.561 -196.434ZM460.294 -314.163L456.324 -315.806V-315.806L460.294 -314.163ZM491.628 -327.152L489.983 -323.184L491.628 -327.152ZM641.025 -265.23L642.67 -269.199V-269.199L641.025 -265.23ZM654.002 -233.875L657.971 -232.232V-232.232L654.002 -233.875ZM605.242 -116.082L601.273 -117.725L597.305 -108.141L606.887 -112.114L605.242 -116.082ZM722.96 -164.89L721.314 -168.858V-168.858L722.96 -164.89ZM754.294 -151.911L758.263 -153.554V-153.554L754.294 -151.911ZM816.171 -2.37988L820.14 -4.02234L820.14 -4.02249L816.171 -2.37988ZM803.183 28.9746L804.829 32.9429L804.829 32.9429L803.183 28.9746ZM685.516 77.7617L683.871 73.7934L674.298 77.7625L683.872 81.7303L685.516 77.7617ZM803.186 126.532L804.831 122.564L803.186 126.532ZM816.164 157.888L812.195 156.245L816.164 157.888ZM754.215 307.543L758.184 309.186L754.215 307.543ZM722.882 320.532L721.237 324.501H721.237L722.882 320.532ZM605.331 271.811L606.976 267.842L597.396 263.872L601.361 273.453L605.331 271.811ZM654.016 389.458L657.986 387.815H657.986L654.016 389.458ZM641.028 420.812L642.673 424.781H642.673L641.028 420.812ZM491.506 482.808L493.151 486.776L493.151 486.776L491.506 482.808ZM460.172 469.829L456.202 471.472V471.472L460.172 469.829ZM411.448 352.09L415.417 350.447L411.448 340.856L407.479 350.447L411.448 352.09ZM362.705 469.848L366.674 471.491L366.674 471.491L362.705 469.848ZM331.372 482.837L329.727 486.805H329.727L331.372 482.837ZM181.974 420.915L180.329 424.884L180.329 424.884L181.974 420.915ZM168.997 389.56L165.028 387.917L168.997 389.56ZM217.785 271.694L221.754 273.337L225.721 263.753L216.14 267.726L217.785 271.694ZM100.044 320.514L101.689 324.482L101.689 324.482L100.044 320.514ZM68.7107 307.534L72.6802 305.892H72.6802L68.7107 307.534ZM6.83276 158.005L2.86329 159.647L2.8633 159.648L6.83276 158.005ZM19.821 126.649L18.1757 122.681L18.1756 122.681L19.821 126.649ZM137.436 77.8828L139.082 81.8511L148.654 77.882L139.081 73.9143L137.436 77.8828ZM19.8093 29.1299L18.1645 33.0984H18.1645L19.8093 29.1299ZM6.83276 -2.22461L10.802 -0.581543L10.8021 -0.581573L6.83276 -2.22461ZM68.781 -151.881L64.8117 -153.524L64.8117 -153.524L68.781 -151.881ZM100.115 -164.87L101.76 -168.839L101.76 -168.839L100.115 -164.87ZM217.684 -116.141L216.039 -112.172L225.619 -108.202L221.654 -117.783L217.684 -116.141ZM168.988 -233.817L165.019 -232.175L165.019 -232.175L168.988 -233.817ZM181.975 -265.173L180.33 -269.141L180.33 -269.141L181.975 -265.173ZM320.398 72.5449L320.398 68.249H320.398V72.5449ZM270.959 121.984H266.663H270.959ZM270.959 206.028H266.663H270.959ZM320.398 255.467V259.763H320.398L320.398 255.467ZM369.838 206.028L374.134 206.028V206.028H369.838ZM369.838 121.984H374.134H369.838ZM503.177 71.9512L503.177 67.6552H503.177V71.9512ZM453.738 121.391H449.442H453.738ZM453.738 205.435H449.442H453.738ZM503.177 254.873V259.169H503.177L503.177 254.873ZM552.616 205.435L556.912 205.435V205.435H552.616ZM552.616 121.391H556.912H552.616ZM331.499 -327.167L333.144 -323.199C343.19 -327.364 354.705 -322.595 358.863 -312.546L362.833 -314.188L366.802 -315.831C360.828 -330.267 344.285 -337.118 329.854 -331.135L331.499 -327.167ZM362.833 -314.188L358.863 -312.546L407.592 -194.791L411.561 -196.434L415.531 -198.076L366.802 -315.831L362.833 -314.188ZM411.561 -196.434L415.531 -194.791L464.263 -312.52L460.294 -314.163L456.324 -315.806L407.592 -198.077L411.561 -196.434ZM460.294 -314.163L464.263 -312.52C468.425 -322.575 479.941 -327.346 489.983 -323.184L491.628 -327.152L493.273 -331.121C478.842 -337.102 462.3 -330.242 456.324 -315.806L460.294 -314.163ZM491.628 -327.152L489.983 -323.184L639.38 -261.262L641.025 -265.23L642.67 -269.199L493.273 -331.121L491.628 -327.152ZM641.025 -265.23L639.38 -261.262C649.423 -257.099 654.195 -245.574 650.032 -235.518L654.002 -233.875L657.971 -232.232C663.946 -246.666 657.099 -263.218 642.67 -269.199L641.025 -265.23ZM654.002 -233.875L650.032 -235.518L601.273 -117.725L605.242 -116.082L609.211 -114.439L657.971 -232.232L654.002 -233.875ZM605.242 -116.082L606.887 -112.114L724.605 -160.921L722.96 -164.89L721.314 -168.858L603.597 -120.05L605.242 -116.082ZM722.96 -164.89L724.605 -160.921C734.651 -165.087 746.166 -160.317 750.324 -150.269L754.294 -151.911L758.263 -153.554C752.289 -167.989 735.746 -174.841 721.314 -168.858L722.96 -164.89ZM754.294 -151.911L750.324 -150.269L812.201 -0.737274L816.171 -2.37988L820.14 -4.02249L758.263 -153.554L754.294 -151.911ZM816.171 -2.37988L812.201 -0.737427C816.36 9.31366 811.586 20.8401 801.538 25.0063L803.183 28.9746L804.829 32.9429C819.258 26.9601 826.112 10.4108 820.14 -4.02234L816.171 -2.37988ZM803.183 28.9746L801.538 25.0063L683.871 73.7934L685.516 77.7617L687.162 81.73L804.829 32.9429L803.183 28.9746ZM685.516 77.7617L683.872 81.7303L801.541 130.501L803.186 126.532L804.831 122.564L687.161 73.7932L685.516 77.7617ZM803.186 126.532L801.541 130.501C811.584 134.663 816.357 146.189 812.195 156.245L816.164 157.888L820.133 159.531C826.108 145.096 819.26 128.544 804.831 122.564L803.186 126.532ZM816.164 157.888L812.195 156.245L750.245 305.9L754.215 307.543L758.184 309.186L820.133 159.531L816.164 157.888ZM754.215 307.543L750.245 305.9C746.083 315.954 734.568 320.725 724.526 316.564L722.882 320.532L721.237 324.501C735.667 330.481 752.208 323.622 758.184 309.186L754.215 307.543ZM722.882 320.532L724.526 316.564L606.976 267.842L605.331 271.811L603.686 275.779L721.237 324.501L722.882 320.532ZM605.331 271.811L601.361 273.453L650.047 391.101L654.016 389.458L657.986 387.815L609.3 270.168L605.331 271.811ZM654.016 389.458L650.047 391.101C654.206 401.151 649.431 412.678 639.383 416.844L641.028 420.812L642.673 424.781C657.103 418.798 663.959 402.249 657.986 387.815L654.016 389.458ZM641.028 420.812L639.383 416.844L489.86 478.839L491.506 482.808L493.151 486.776L642.673 424.781L641.028 420.812ZM491.506 482.808L489.86 478.839C479.814 483.004 468.3 478.235 464.141 468.186L460.172 469.829L456.202 471.472C462.176 485.907 478.72 492.759 493.151 486.776L491.506 482.808ZM460.172 469.829L464.141 468.186L415.417 350.447L411.448 352.09L407.479 353.732L456.202 471.472L460.172 469.829ZM411.448 352.09L407.479 350.447L358.736 468.205L362.705 469.848L366.674 471.491L415.417 353.733L411.448 352.09ZM362.705 469.848L358.736 468.205C354.574 478.259 343.058 483.03 333.017 478.868L331.372 482.837L329.727 486.805C344.157 492.786 360.698 485.927 366.674 471.491L362.705 469.848ZM331.372 482.837L333.017 478.868L183.619 416.946L181.974 420.915L180.329 424.884L329.727 486.805L331.372 482.837ZM181.974 420.915L183.619 416.947C173.576 412.784 168.804 401.259 172.966 391.203L168.997 389.56L165.028 387.917C159.053 402.351 165.9 418.903 180.329 424.884L181.974 420.915ZM168.997 389.56L172.966 391.203L221.754 273.337L217.785 271.694L213.816 270.051L165.028 387.917L168.997 389.56ZM217.785 271.694L216.14 267.726L98.3983 316.545L100.044 320.514L101.689 324.482L219.43 275.663L217.785 271.694ZM100.044 320.514L98.3984 316.545C88.3525 320.71 76.8386 315.941 72.6802 305.892L68.7107 307.534L64.7412 309.177C70.7148 323.612 87.2573 330.465 101.689 324.482L100.044 320.514ZM68.7107 307.534L72.6802 305.892L10.8022 156.362L6.83276 158.005L2.8633 159.648L64.7412 309.177L68.7107 307.534ZM6.83276 158.005L10.8022 156.362C6.64308 146.311 11.4181 134.784 21.4665 130.618L19.821 126.649L18.1756 122.681C3.74672 128.664 -3.10954 145.214 2.86329 159.647L6.83276 158.005ZM19.821 126.649L21.4664 130.618L139.082 81.8511L137.436 77.8828L135.791 73.9145L18.1757 122.681L19.821 126.649ZM137.436 77.8828L139.081 73.9143L21.4542 25.1613L19.8093 29.1299L18.1645 33.0984L135.791 81.8513L137.436 77.8828ZM19.8093 29.1299L21.4542 25.1613C11.4116 20.9989 6.6394 9.47452 10.802 -0.581543L6.83276 -2.22461L2.86348 -3.86768C-3.11159 10.5668 3.73518 27.1178 18.1645 33.0984L19.8093 29.1299ZM6.83276 -2.22461L10.8021 -0.581573L72.7503 -150.238L68.781 -151.881L64.8117 -153.524L2.86347 -3.86765L6.83276 -2.22461ZM68.781 -151.881L72.7503 -150.238C76.9123 -160.292 88.4286 -165.063 98.4702 -160.902L100.115 -164.87L101.76 -168.839C87.3293 -174.82 70.7875 -167.96 64.8117 -153.524L68.781 -151.881ZM100.115 -164.87L98.4701 -160.902L216.039 -112.172L217.684 -116.141L219.329 -120.109L101.76 -168.839L100.115 -164.87ZM217.684 -116.141L221.654 -117.783L172.958 -235.46L168.988 -233.817L165.019 -232.175L213.715 -114.498L217.684 -116.141ZM168.988 -233.817L172.958 -235.46C168.798 -245.511 173.573 -257.038 183.621 -261.205L181.975 -265.173L180.33 -269.141C165.901 -263.158 159.046 -246.608 165.019 -232.175L168.988 -233.817ZM181.975 -265.173L183.621 -261.205L333.144 -323.199L331.499 -327.167L329.853 -331.135L180.33 -269.141L181.975 -265.173ZM320.398 72.5449V68.249C290.721 68.2491 266.663 92.3074 266.663 121.984H270.959H275.255C275.255 97.0526 295.466 76.8409 320.398 76.8409V72.5449ZM270.959 121.984H266.663V206.028H270.959H275.255V121.984H270.959ZM270.959 206.028H266.663C266.663 235.705 290.721 259.763 320.398 259.763V255.467V251.171C295.466 251.171 275.255 230.96 275.255 206.028H270.959ZM320.398 255.467L320.398 259.763C350.075 259.763 374.133 235.705 374.134 206.028L369.838 206.028L365.542 206.028C365.542 230.96 345.33 251.171 320.398 251.171L320.398 255.467ZM369.838 206.028H374.134V121.984H369.838H365.542V206.028H369.838ZM369.838 121.984H374.134C374.134 92.3075 350.075 68.2492 320.398 68.249L320.398 72.5449L320.398 76.8409C345.33 76.841 365.542 97.0527 365.542 121.984H369.838ZM503.177 71.9512V67.6552C473.499 67.6553 449.442 91.7138 449.442 121.391H453.738H458.034C458.034 96.4587 478.245 76.2471 503.177 76.2471V71.9512ZM453.738 121.391H449.442V205.435H453.738H458.034V121.391H453.738ZM453.738 205.435H449.442C449.442 235.111 473.5 259.169 503.177 259.169V254.873V250.577C478.245 250.577 458.034 230.366 458.034 205.435H453.738ZM503.177 254.873L503.177 259.169C532.853 259.169 556.912 235.111 556.912 205.435L552.616 205.435L548.32 205.435C548.32 230.366 528.108 250.577 503.176 250.577L503.177 254.873ZM552.616 205.435H556.912V121.391H552.616H548.32V205.435H552.616ZM552.616 121.391H556.912C556.912 91.7137 532.853 67.6555 503.177 67.6552L503.177 71.9512L503.176 76.2471C528.108 76.2473 548.32 96.4589 548.32 121.391H552.616Z" fill="#F4F2EE"/>
</svg>
